<svg xmlns="http://www.w3.org/2000/svg" viewBox="0 0 128 128"><defs><style>.cls-1{isolation:isolate;}.cls-2{mix-blend-mode:multiply;}.Graphic-Style-2,.cls-3{fill:#302a27;}.cls-4{fill:#c49b83;}.cls-5{fill:#78c17b;}.cls-6{fill:#925cb2;}.cls-7{opacity:0.12;}.Graphic-Style-2,.cls-8{stroke:#302a27;stroke-linecap:round;stroke-linejoin:round;stroke-width:2px;}.cls-8{fill:none;}</style></defs><title>eggplant</title><g class="cls-1"><g id="icons" class="cls-2"><path class="cls-3" d="M53.91,115C40.66,115,22,106.679,22,88.18c0-15.749,9.865-26.04,28.529-29.761,5.35-1.065,10.233-6.167,15.346-11.764a16.681,16.681,0,0,1-3.513-3.468A2,2,0,0,1,64,40.04c.052,0,5.925-.088,9.156-4.213,4-5.118,8.931-7.823,14.252-7.823a16.431,16.431,0,0,1,2.408.181,7.262,7.262,0,0,0-.87-2.135,9.827,9.827,0,0,0-2.286-2.369,10.343,10.343,0,0,0-.908-.609c-.226-.14-.45-.28-.669-.428l-2.052-1.007A4.557,4.557,0,0,1,85.051,13a4.554,4.554,0,0,1,2,.468c.123.061.249.13.347.186l2.359,1.488a1.906,1.906,0,0,1,.2.144c.225.184.451.36.677.536A20,20,0,0,1,92.2,17.135a18.161,18.161,0,0,1,3.82,5.028A15.146,15.146,0,0,1,97.5,28.641a13.819,13.819,0,0,1-.182,2.314,16.008,16.008,0,0,1,2.955,2.319c3.974,3.9,5.327,9.482,3.7,15.294-1.7,6.081,1.737,12.4,1.772,12.46A2,2,0,0,1,104,64a16.669,16.669,0,0,1-2.905-.25c-2.171,14.9-7.875,29.124-14.8,36.7A43.493,43.493,0,0,1,53.91,115Z"/><path class="cls-3" d="M85.051,15a2.53,2.53,0,0,1,1.119.261c.08.04.17.09.24.13l2.28,1.44c.72.59,1.46,1.11,2.13,1.75a16.3,16.3,0,0,1,3.42,4.49,12.97,12.97,0,0,1,.96,8.35c-.04.19-.09.38-.14.57.05.03.11.05.16.08a14.345,14.345,0,0,1,3.64,2.62c3.32,3.26,4.68,8.01,3.19,13.34C100.1,55.02,104,62,104,62a13.755,13.755,0,0,1-4.59-.75C97.73,75.14,92.47,90.73,84.82,99.1A41.35,41.35,0,0,1,53.91,113C40.95,113,24,105.06,24,88.18s11.97-24.82,26.92-27.8c6.58-1.31,12.26-7.81,18.05-14.15A14.91,14.91,0,0,1,64,42.04s6.83,0,10.73-4.98C77.49,33.532,81.716,30,87.408,30a15.341,15.341,0,0,1,4.542.716,9.567,9.567,0,0,0-.01-1.93,9.086,9.086,0,0,0-1.28-3.77,11.817,11.817,0,0,0-2.8-2.94c-.55-.43-1.19-.77-1.77-1.17l-1.96-.96-.2-.1A2.556,2.556,0,0,1,85.051,15m0-4a6.556,6.556,0,0,0-2.875,12.446l.166.083,1.746.855c.2.131.4.258.6.384.279.174.543.338.7.464l.064.049a8.581,8.581,0,0,1,.88.756c-5.543.334-10.627,3.276-14.76,8.56C69,37.892,64.049,38.04,64,38.04a4,4,0,0,0-3.276,6.295,17.019,17.019,0,0,0,2.255,2.514c-4.254,4.579-8.6,8.764-12.84,9.608-8.876,1.769-15.938,5.021-20.992,9.665C23.078,71.7,20,79.122,20,88.18c0,8.878,4.192,16.7,11.8,22.018A39.408,39.408,0,0,0,53.91,117a45.472,45.472,0,0,0,33.864-15.2c5.553-6.075,12.182-18.509,15.007-35.835q.6.038,1.219.038a4,4,0,0,0,3.492-5.951c-.022-.041-3.057-5.683-1.589-10.944,1.827-6.534.281-12.829-4.24-17.269a17.466,17.466,0,0,0-2.212-1.867c.037-.458.054-.907.05-1.35a17.079,17.079,0,0,0-1.638-7.246q-.028-.059-.057-.117a20.206,20.206,0,0,0-4.255-5.6,21.783,21.783,0,0,0-1.686-1.414c-.213-.166-.427-.333-.639-.507a3.989,3.989,0,0,0-.4-.288l-2.28-1.44q-.073-.046-.149-.09c-.127-.073-.292-.163-.437-.236A6.6,6.6,0,0,0,85.051,11Z"/><g id="_Group_" data-name="&lt;Group&gt;"><path class="cls-4" d="M95.5,28.63a12.959,12.959,0,0,1-.3,2.79c-.04.19-.09.38-.14.57a11.65,11.65,0,0,1-.78,2.14,1.519,1.519,0,0,1-2.81-1.14l.05-.17a9.642,9.642,0,0,0,.42-1.96.66.66,0,0,0,.01-.14,9.568,9.568,0,0,0-.01-1.93,9.088,9.088,0,0,0-1.28-3.77,11.82,11.82,0,0,0-2.8-2.94c-.55-.43-1.19-.77-1.77-1.17l-1.96-.96-.2-.1a2.554,2.554,0,0,1,2.24-4.59c.08.04.17.09.24.13l2.28,1.44c.72.59,1.46,1.11,2.13,1.75a16.3,16.3,0,0,1,3.42,4.49A13.048,13.048,0,0,1,95.5,28.63Z"/><path class="cls-5" d="M91.52,32.82l-.05.17a1.519,1.519,0,0,0,2.81,1.14,11.65,11.65,0,0,0,.78-2.14c.05.03.11.05.16.08a14.348,14.348,0,0,1,3.64,2.62c3.32,3.26,4.68,8.01,3.19,13.34C100.1,55.02,104,62,104,62a13.754,13.754,0,0,1-4.59-.75A14.777,14.777,0,0,1,91,53c-3,8-17,5-17,5,.43-.32.82-.64,1.19-.95C81.79,51.38,80,46,80,46a11.582,11.582,0,0,1-11.03.23A14.91,14.91,0,0,1,64,42.04s6.83,0,10.73-4.98c3.45-4.41,9.19-8.82,17.22-6.34a.66.66,0,0,1-.01.14A9.642,9.642,0,0,1,91.52,32.82Z"/><path class="cls-6" d="M99.41,61.25C97.73,75.14,92.47,90.73,84.82,99.1A41.35,41.35,0,0,1,53.91,113C40.95,113,24,105.06,24,88.18s11.97-24.82,26.92-27.8c6.58-1.31,12.26-7.81,18.05-14.15A11.582,11.582,0,0,0,80,46s1.79,5.38-4.81,11.05c-.37.31-.76.63-1.19.95,0,0,14,3,17-5A14.777,14.777,0,0,0,99.41,61.25Z"/><g class="cls-7"><path class="Graphic-Style-2" d="M99.41,61.25C97.73,75.14,92.47,90.73,84.82,99.1A41.35,41.35,0,0,1,53.91,113c-11.72,0-26.7-6.49-29.46-20.22a11.478,11.478,0,0,1,2.44.94c4.08,2.19,6.93,6.4,11.28,7.97,3.87,1.4,8.18.44,12.24,1.13,2.46.41,4.79,1.44,7.24,1.91,5.79,1.12,11.85-.95,16.61-4.43s8.39-8.26,11.7-13.14a3.429,3.429,0,0,0,.67-1.45,5.569,5.569,0,0,0-.56-2.11c-.86-2.68,1.05-5.36,2.51-7.77a27.612,27.612,0,0,0,3.77-11c.29-2.43.41-5.2,1.63-7.18A13.348,13.348,0,0,0,99.41,61.25Z"/><path class="Graphic-Style-2" d="M104,62c-9.76,0-13-9-13-9-3,8-17,5-17,5,.43-.32.82-.64,1.19-.95,2.47-.85,5.09-1.25,7.28-2.68,3.38-2.21,4.36-6.75,9.47-5.45a6.581,6.581,0,0,1,4.72,4.97,35.79,35.79,0,0,0,1.83-13.15c-.1-2.02-.33-4.21.37-6.05,3.32,3.26,4.68,8.01,3.19,13.34C100.1,55.02,104,62,104,62Z"/></g><path class="cls-8" d="M99.41,61.25C97.73,75.14,92.47,90.73,84.82,99.1A41.35,41.35,0,0,1,53.91,113C40.95,113,24,105.06,24,88.18s11.97-24.82,26.92-27.8c6.58-1.31,12.26-7.81,18.05-14.15"/><path class="cls-8" d="M91.95,30.72c-8.03-2.48-13.77,1.93-17.22,6.34C70.83,42.04,64,42.04,64,42.04a14.91,14.91,0,0,0,4.97,4.19A11.582,11.582,0,0,0,80,46s1.79,5.38-4.81,11.05c-.37.31-.76.63-1.19.95,0,0,14,3,17-5a14.777,14.777,0,0,0,8.41,8.25A13.754,13.754,0,0,0,104,62s-3.9-6.98-1.95-13.97c1.49-5.33.13-10.08-3.19-13.34a14.348,14.348,0,0,0-3.64-2.62c-.05-.03-.11-.05-.16-.08"/><path class="cls-8" d="M95.06,31.99a11.65,11.65,0,0,1-.78,2.14,1.519,1.519,0,0,1-2.81-1.14l.05-.17a9.642,9.642,0,0,0,.42-1.96.66.66,0,0,0,.01-.14,9.568,9.568,0,0,0-.01-1.93,9.088,9.088,0,0,0-1.28-3.77,11.82,11.82,0,0,0-2.8-2.94c-.55-.43-1.19-.77-1.77-1.17l-1.96-.96-.2-.1a2.554,2.554,0,0,1,2.24-4.59c.08.04.17.09.24.13l2.28,1.44c.72.59,1.46,1.11,2.13,1.75a16.3,16.3,0,0,1,3.42,4.49,12.97,12.97,0,0,1,.96,8.35C95.16,31.61,95.11,31.8,95.06,31.99Z"/></g></g></g></svg>