<svg width="64" height="64" xmlns="http://www.w3.org/2000/svg">

 <g>
  <title>background</title>
  <rect fill="none" id="canvas_background" height="402" width="582" y="-1" x="-1"/>
 </g>
 <g>
  <title>Layer 1</title>
  <g stroke="null" stroke-width="null" stroke-opacity="null" fill="#F5CF87" id="Layer_1">
   <g stroke="null" id="svg_1"/>
   <g stroke="null" id="svg_3">
    <g stroke="null" id="svg_4" opacity="0.2">
     <path stroke="null" id="svg_5" fill="#231F20" d="m54.594001,22.670022c-1.467682,0 -2.656438,-1.193239 -2.656438,-2.666457l0,-3.999685c0,-1.473217 1.188756,-2.666457 2.656438,-2.666457l0,0c1.467682,0 2.656438,1.193239 2.656438,2.666457l0,3.999685c0,1.473217 -1.188756,2.666457 -2.656438,2.666457l0,0z"/>
    </g>
    <g stroke="null" id="svg_6" opacity="0.2">
     <path stroke="null" id="svg_7" fill="#231F20" d="m54.594001,34.669078c-1.467682,0 -2.656438,-1.193239 -2.656438,-2.666457l0,-3.999685c0,-1.473217 1.188756,-2.666457 2.656438,-2.666457l0,0c1.467682,0 2.656438,1.193239 2.656438,2.666457l0,3.999685c0,1.473217 -1.188756,2.666457 -2.656438,2.666457l0,0z"/>
    </g>
    <g stroke="null" id="svg_8" opacity="0.2">
     <path stroke="null" id="svg_9" fill="#231F20" d="m54.594001,46.668134c-1.467682,0 -2.656438,-1.193239 -2.656438,-2.666457l0,-3.999685c0,-1.473217 1.188756,-2.666457 2.656438,-2.666457l0,0c1.467682,0 2.656438,1.193239 2.656438,2.666457l0,3.999685c0,1.473217 -1.188756,2.666457 -2.656438,2.666457l0,0z"/>
    </g>
    <g stroke="null" id="svg_10">
     <path stroke="null" id="svg_11" fill="#77B3D4" d="m54.594001,20.003565c-1.467682,0 -2.656438,-1.193239 -2.656438,-2.666457l0,-3.999685c0,-1.473217 1.188756,-2.666457 2.656438,-2.666457l0,0c1.467682,0 2.656438,1.193239 2.656438,2.666457l0,3.999685c0,1.473217 -1.188756,2.666457 -2.656438,2.666457l0,0z"/>
    </g>
    <g stroke="null" id="svg_12">
     <path stroke="null" id="svg_13" fill="#FFFFFF" d="m54.594001,32.002621c-1.467682,0 -2.656438,-1.193239 -2.656438,-2.666457l0,-3.999685c0,-1.473217 1.188756,-2.666457 2.656438,-2.666457l0,0c1.467682,0 2.656438,1.193239 2.656438,2.666457l0,3.999685c0,1.473217 -1.188756,2.666457 -2.656438,2.666457l0,0z"/>
    </g>
    <g stroke="null" id="svg_14">
     <path stroke="null" id="svg_15" fill="#76C2AF" d="m54.594001,44.001677c-1.467682,0 -2.656438,-1.193239 -2.656438,-2.666457l0,-3.999685c0,-1.473217 1.188756,-2.666457 2.656438,-2.666457l0,0c1.467682,0 2.656438,1.193239 2.656438,2.666457l0,3.999685c0,1.473217 -1.188756,2.666457 -2.656438,2.666457l0,0z"/>
    </g>
    <g stroke="null" id="svg_16" opacity="0.2">
     <path stroke="null" id="svg_17" fill="#231F20" d="m54.594001,54.667504c0,2.945102 -2.37884,5.332914 -5.312876,5.332914l-31.877254,0c-2.934036,0 -5.312876,-2.387812 -5.312876,-5.332914l0,-42.66331c0,-2.945102 2.37884,-5.332914 5.312876,-5.332914l31.877254,0c2.934036,0 5.312876,2.387812 5.312876,5.332914l0,42.66331z"/>
    </g>
    <g stroke="null" id="svg_18">
     <path stroke="null" id="svg_19" fill="#a6a1c9" d="m53.265783,52.001047c0,2.945102 -2.37884,5.332914 -5.312876,5.332914l-31.877255,0c-2.934036,0 -5.312875,-2.387812 -5.312875,-5.332914l0,-42.663309c0,-2.945102 2.378839,-5.332914 5.312875,-5.332914l31.877255,0c2.934036,0 5.312876,2.387812 5.312876,5.332914l0,42.663309z"/>
    </g>
    <g stroke="null" id="svg_20">
     <rect stroke="null" id="svg_21" y="3.983284" x="10.709585" width="5.379873" height="53.351133" fill="#5b6a7f"/>
    </g>
    <g stroke="null" id="svg_22" opacity="0.2">
     <g stroke="null" id="svg_23"/>
    </g>
    <g stroke="null" id="svg_31">
     <g stroke="null" id="svg_32"/>
     <g stroke="null" id="svg_34"/>
     <g stroke="null" id="svg_38"/>
    </g>
    <g stroke="null" id="svg_40">
     <circle stroke="null" id="svg_41" r="3.428181" fill="#fff8ed" cy="19.364164" cx="27.037424"/>
    </g>
    <ellipse stroke="null" ry="4.157676" rx="4.490858" id="svg_44" cy="17.482455" cx="38.772365" stroke-opacity="null" stroke-width="null" fill="#fff8ed"/>
    <ellipse stroke="null" ry="6.1271" rx="5.144866" id="svg_45" cy="16.300798" cx="32.450283" stroke-opacity="null" stroke-width="null" fill="#fff8ed"/>
    <rect stroke="null" transform="matrix(1.3184168105297636,-0.16167471960502433,0.16106724040492604,1.3233893349701351,-17.324411423475723,-5.840264253219134) " id="svg_46" height="6.596168" width="8.272236" y="24.328178" x="31.390853" stroke-opacity="null" stroke-width="null" fill="#fff8ed"/>
    <ellipse stroke="null" transform="matrix(1.3192024736510497,-0.15508311871195732,0.15450040689941147,1.3241779612886755,-17.66353796170654,-5.99106124280355) " ry="0.697506" rx="4.121491" id="svg_57" cy="30.842937" cx="35.929285" stroke-opacity="null" stroke-width="null" fill="#dcdaed"/>
   </g>
  </g>
  <g id="Layer_2"/>
  <line stroke-linecap="null" stroke-linejoin="null" id="svg_47" y2="35.846326" x2="34.987193" y1="31.447601" x1="30.063247" stroke-opacity="null" stroke-width="null" stroke="null" fill="none"/>
  <rect id="svg_60" height="0.500035" width="17.626234" y="41.428395" x="25.874573" stroke-opacity="null" stroke-width="null" stroke="null" fill="#5b6a7f"/>
  <rect id="svg_62" height="0.500035" width="17.626234" y="43.92857" x="25.874573" stroke-opacity="null" stroke-width="null" stroke="null" fill="#5b6a7f"/>
  <rect id="svg_64" height="0.500035" width="17.626234" y="46.553754" x="25.874573" stroke-opacity="null" stroke-width="null" stroke="null" fill="#5b6a7f"/>
 </g>
</svg>