<?xml version="1.0" encoding="UTF-8" standalone="no"?>
<!DOCTYPE svg PUBLIC "-//W3C//DTD SVG 1.1//EN" "http://www.w3.org/Graphics/SVG/1.1/DTD/svg11.dtd">
<svg version="1.1" xmlns="http://www.w3.org/2000/svg" xmlns:xlink="http://www.w3.org/1999/xlink" preserveAspectRatio="xMidYMid meet" viewBox="0 0 640 640" width="640" height="640"><defs><path d="M613.33 321.33C613.33 158.67 482.67 28 320 28C157.33 28 26.67 158.67 26.67 321.33C26.67 482.67 157.33 614.67 320 614.67C481.33 614.67 613.33 482.67 613.33 321.33" id="bcNXS41dg"></path><path d="M320 25.33C482.67 25.33 613.33 156 613.33 318.67C613.33 480 482.67 612 320 612" id="b2hJPsWLl"></path><path d="M332.76 1.58L339.1 1.89L345.43 2.33L351.72 2.88L357.99 3.56L364.24 4.36L370.45 5.28L376.64 6.32L382.79 7.48L388.91 8.76L395 10.15L401.05 11.67L407.07 13.3L413.05 15.04L418.99 16.91L424.89 18.88L430.75 20.98L436.56 23.18L442.33 25.5L448.06 27.93L453.74 30.47L459.38 33.13L464.96 35.89L470.49 38.77L475.98 41.75L481.41 44.85L486.79 48.05L492.11 51.36L497.38 54.77L502.58 58.29L507.73 61.92L512.82 65.65L517.85 69.49L522.82 73.43L527.72 77.47L532.56 81.62L537.33 85.87L542.03 90.22L546.67 94.67L551.12 99.21L555.47 103.82L559.71 108.52L563.86 113.29L567.9 118.13L571.84 123.05L575.68 128.03L579.41 133.09L583.04 138.21L586.56 143.4L589.98 148.65L593.29 153.96L596.49 159.33L599.58 164.76L602.57 170.25L605.44 175.8L608.2 181.4L610.86 187.05L613.4 192.75L615.83 198.5L618.15 204.3L620.36 210.14L622.45 216.03L624.43 221.96L626.29 227.93L628.04 233.95L629.67 240L631.18 246.08L632.58 252.2L633.85 258.35L635.01 264.54L636.05 270.75L636.97 276.99L637.77 283.26L638.45 289.55L639.01 295.87L639.44 302.21L639.75 308.57L639.94 314.94L640 321.33L639.94 327.72L639.75 334.09L639.44 340.44L639.01 346.76L638.45 353.06L637.77 359.33L636.97 365.57L636.05 371.79L635.01 377.97L633.85 384.13L632.58 390.25L631.18 396.33L629.67 402.39L628.04 408.4L626.29 414.38L624.43 420.32L622.45 426.22L620.36 432.08L618.15 437.89L615.83 443.67L613.4 449.39L610.86 455.08L608.2 460.71L605.44 466.29L602.57 471.83L599.58 477.31L596.49 482.74L593.29 488.12L589.98 493.44L586.56 498.71L583.04 503.92L579.41 509.07L575.68 514.16L571.84 519.18L567.9 524.15L563.86 529.05L559.71 533.89L555.47 538.66L551.12 543.37L546.67 548L542.13 552.45L537.51 556.8L532.81 561.05L528.04 565.19L523.2 569.24L518.29 573.18L513.3 577.01L508.25 580.75L503.12 584.37L497.94 587.9L492.69 591.31L487.37 594.62L482 597.82L476.57 600.91L471.08 603.9L465.54 606.77L459.94 609.54L454.29 612.19L448.58 614.74L442.83 617.17L437.03 619.49L431.19 621.69L425.3 623.78L419.37 625.76L413.4 627.62L407.39 629.37L401.34 631L395.25 632.51L389.13 633.91L382.98 635.19L376.8 636.35L370.58 637.39L364.34 638.31L358.07 639.11L351.78 639.78L345.46 640.34L339.13 640.77L332.77 641.08L326.39 641.27L320 641.33L313.61 641.27L307.24 641.08L300.9 640.77L294.57 640.34L288.28 639.78L282.01 639.11L275.76 638.31L269.55 637.39L263.36 636.35L257.21 635.19L251.09 633.91L245 632.51L238.95 631L232.93 629.37L226.95 627.62L221.01 625.76L215.11 623.78L209.26 621.69L203.44 619.49L197.67 617.17L191.94 614.74L186.26 612.19L180.62 609.54L175.04 606.77L169.51 603.9L164.02 600.91L158.59 597.82L153.21 594.62L147.89 591.31L142.63 587.9L137.42 584.37L132.27 580.75L127.18 577.01L122.15 573.18L117.18 569.24L112.28 565.19L107.44 561.05L102.67 556.8L97.97 552.45L93.33 548L88.88 543.46L84.53 538.84L80.29 534.15L76.14 529.38L72.1 524.53L68.16 519.62L64.32 514.63L60.59 509.58L56.96 504.46L53.44 499.27L50.02 494.02L46.71 488.71L43.51 483.34L40.42 477.9L37.43 472.41L34.56 466.87L31.8 461.27L29.14 455.62L26.6 449.92L24.17 444.17L21.85 438.37L19.64 432.52L17.55 426.64L15.57 420.7L13.71 414.73L11.96 408.72L10.33 402.67L8.82 396.59L7.42 390.47L6.15 384.31L4.99 378.13L3.95 371.91L3.03 365.67L2.23 359.4L1.55 353.11L0.99 346.8L0.56 340.46L0.25 334.1L0.06 327.73L0 321.33L0.06 314.94L0.25 308.58L0.56 302.23L0.99 295.91L1.55 289.61L2.23 283.34L3.03 277.09L3.95 270.88L4.99 264.7L6.15 258.54L7.42 252.42L8.82 246.33L10.33 240.28L11.96 234.26L13.71 228.29L15.57 222.35L17.55 216.45L19.64 210.59L21.85 204.77L24.17 199L26.6 193.27L29.14 187.59L31.8 181.96L34.56 176.37L37.43 170.84L40.42 165.35L43.51 159.92L46.71 154.55L50.02 149.22L53.44 143.96L56.96 138.75L60.59 133.6L64.32 128.51L68.16 123.48L72.1 118.52L76.14 113.61L80.29 108.78L84.53 104L88.88 99.3L93.33 94.67L97.87 90.22L102.49 85.87L107.19 81.62L111.96 77.47L116.8 73.43L121.71 69.49L126.7 65.65L131.75 61.92L136.88 58.29L142.06 54.77L147.31 51.36L152.63 48.05L158 44.85L163.43 41.75L168.92 38.77L174.46 35.89L180.06 33.13L185.71 30.47L191.42 27.93L197.17 25.5L202.97 23.18L208.81 20.98L214.7 18.88L220.63 16.91L226.6 15.04L232.61 13.3L238.66 11.67L244.75 10.15L250.87 8.76L257.02 7.48L263.2 6.32L269.42 5.28L275.66 4.36L281.93 3.56L288.22 2.88L294.54 2.33L300.87 1.89L307.23 1.58L313.61 1.4L320 1.33L326.39 1.4L332.76 1.58ZM298.21 55.56L287.49 56.65L276.89 58.17L266.43 60.11L256.12 62.45L245.95 65.19L235.95 68.32L226.11 71.83L216.46 75.71L206.99 79.95L197.72 84.55L188.65 89.49L179.8 94.77L171.17 100.37L162.77 106.29L154.61 112.53L146.71 119.06L139.05 125.89L131.67 133L124.56 140.39L117.73 148.04L111.19 155.95L104.96 164.11L99.04 172.51L93.43 181.14L88.15 189.99L83.21 199.05L78.62 208.32L74.38 217.79L70.5 227.45L66.99 237.28L63.86 247.28L61.12 257.45L58.78 267.77L56.84 278.23L55.32 288.82L54.22 299.55L53.56 310.38L53.33 321.33L53.56 332.28L54.22 343.12L55.32 353.84L56.84 364.44L58.78 374.9L61.12 385.22L63.86 395.38L66.99 405.39L70.5 415.22L74.38 424.88L78.62 434.34L83.21 443.61L88.15 452.68L93.43 461.53L99.04 470.16L104.96 478.56L111.19 486.72L117.73 494.63L124.56 502.28L131.67 509.67L139.05 516.78L146.71 523.61L154.61 530.14L162.77 536.37L171.17 542.3L179.8 547.9L188.65 553.18L197.72 558.12L206.99 562.72L216.46 566.96L226.11 570.84L235.95 574.35L245.95 577.48L256.12 580.21L266.43 582.56L276.89 584.49L287.49 586.01L298.21 587.11L309.05 587.78L320 588L330.95 587.78L341.79 587.11L352.51 586.01L363.11 584.49L373.57 582.56L383.89 580.22L394.05 577.48L404.05 574.35L413.89 570.84L423.54 566.96L433.01 562.72L442.28 558.12L451.35 553.18L460.2 547.9L468.83 542.3L477.23 536.37L485.39 530.14L493.3 523.61L500.95 516.78L508.33 509.67L515.44 502.28L522.27 494.63L528.81 486.72L535.04 478.56L540.96 470.16L546.57 461.53L551.85 452.68L556.79 443.61L561.38 434.34L565.63 424.88L569.5 415.22L573.01 405.39L576.14 395.38L578.88 385.22L581.22 374.9L583.16 364.44L584.68 353.84L585.78 343.12L586.44 332.28L586.67 321.33L586.45 310.38L585.79 299.54L584.7 288.82L583.2 278.23L581.28 267.77L578.96 257.45L576.24 247.28L573.14 237.28L569.66 227.45L565.81 217.79L561.6 208.32L557.04 199.05L552.13 189.99L546.89 181.14L541.32 172.51L535.42 164.11L529.22 155.95L522.72 148.04L515.92 140.39L508.83 133L501.47 125.89L493.84 119.06L485.95 112.53L477.8 106.29L469.41 100.37L460.79 94.77L451.94 89.49L442.87 84.55L433.59 79.95L424.1 75.71L414.43 71.83L404.57 68.32L394.53 65.19L384.32 62.45L373.95 60.11L363.43 58.17L352.77 56.65L341.97 55.56L331.04 54.89L320 54.67L309.05 54.89L298.21 55.56Z" id="cwWGlQshW"></path><path d="M378.29 203.43C372.84 231.95 380.77 277.66 402.08 340.57C409.86 363.53 409.72 388.44 401.67 411.32C377.06 481.22 336.16 501.24 278.99 471.36C215.18 438.02 221.37 346.61 297.55 197.12C308.81 175.03 334.45 164.38 358.06 171.99C374.54 177.31 381.29 187.79 378.29 203.43Z" id="dGqvLzYi"></path><path d="M392.43 174.81C397.93 195.31 386.05 203.32 398.51 247.11C389.73 236.39 373.16 230.36 366.72 215.41C365.39 212.33 365.39 206.48 366.72 197.87C359.19 205.44 348.45 210.37 334.5 212.66C344.84 200.59 339.17 192.11 338.91 197.41C335.2 202.62 331.24 211.16 315.39 208.01C325.74 200.66 324.26 194.11 327.26 185.11C317.26 193.61 256.76 188.11 274.26 189.11C291.76 190.11 299.26 171.61 318.76 159.11C331.76 150.78 346.93 147.29 364.26 148.63L373.26 113.13L383.76 117.63L371.26 148.63C381.71 152.42 388.77 161.14 392.43 174.81Z" id="a6vP0puq7"></path></defs><g><g><g><use xlink:href="#bcNXS41dg" opacity="1" fill="#ffce59" fill-opacity="1"></use><g><use xlink:href="#bcNXS41dg" opacity="1" fill-opacity="0" stroke="#000000" stroke-width="1" stroke-opacity="0"></use></g></g><g><use xlink:href="#b2hJPsWLl" opacity="1" fill="#ffb647" fill-opacity="1"></use><g><use xlink:href="#b2hJPsWLl" opacity="1" fill-opacity="0" stroke="#000000" stroke-width="1" stroke-opacity="0"></use></g></g><g><use xlink:href="#cwWGlQshW" opacity="1" fill="#ffa235" fill-opacity="1"></use><g><use xlink:href="#cwWGlQshW" opacity="1" fill-opacity="0" stroke="#000000" stroke-width="1" stroke-opacity="0"></use></g></g><g><use xlink:href="#dGqvLzYi" opacity="1" fill="#da9000" fill-opacity="1"></use><g><use xlink:href="#dGqvLzYi" opacity="1" fill-opacity="0" stroke="#7d3c00" stroke-width="3" stroke-opacity="1"></use></g></g><g><use xlink:href="#a6vP0puq7" opacity="1" fill="#da9000" fill-opacity="1"></use><g><use xlink:href="#a6vP0puq7" opacity="1" fill-opacity="0" stroke="#7d3c00" stroke-width="3" stroke-opacity="1"></use></g></g></g></g></svg>